<?xml version="1.0" encoding="UTF-8" standalone="no"?>
<!-- Created with Inkscape (http://www.inkscape.org/) -->

<svg
   xmlns:dc="http://purl.org/dc/elements/1.1/"
   xmlns:cc="http://creativecommons.org/ns#"
   xmlns:rdf="http://www.w3.org/1999/02/22-rdf-syntax-ns#"
   xmlns:svg="http://www.w3.org/2000/svg"
   xmlns="http://www.w3.org/2000/svg"
   xmlns:sodipodi="http://sodipodi.sourceforge.net/DTD/sodipodi-0.dtd"
   xmlns:inkscape="http://www.inkscape.org/namespaces/inkscape"
   width="744.09448819"
   height="1052.3622047"
   id="svg2"
   version="1.1"
   inkscape:version="0.48.4 r9939"
   sodipodi:docname="Nowy dokument 1">
  <defs
     id="defs4" />
  <sodipodi:namedview
     id="base"
     pagecolor="#ffffff"
     bordercolor="#666666"
     borderopacity="1.0"
     inkscape:pageopacity="0.0"
     inkscape:pageshadow="2"
     inkscape:zoom="0.7"
     inkscape:cx="307.4159"
     inkscape:cy="646.46804"
     inkscape:document-units="px"
     inkscape:current-layer="layer1"
     showgrid="false"
     inkscape:window-width="1366"
     inkscape:window-height="705"
     inkscape:window-x="-8"
     inkscape:window-y="-8"
     inkscape:window-maximized="1" />
  <metadata
     id="metadata7">
    <rdf:RDF>
      <cc:Work
         rdf:about="">
        <dc:format>image/svg+xml</dc:format>
        <dc:type
           rdf:resource="http://purl.org/dc/dcmitype/StillImage" />
        <dc:title></dc:title>
      </cc:Work>
    </rdf:RDF>
  </metadata>
  <g
     inkscape:label="Layer 1"
     inkscape:groupmode="layer"
     id="layer1">
    <rect
       y="253.79079"
       x="139.99998"
       height="374.28571"
       width="374.28571"
       id="rect3182"
       style="fill:#8800aa;fill-opacity:1;fill-rule:nonzero;stroke:none"
       inkscape:export-filename="C:\Users\Szymon\Desktop\icons\xxxhdpi.png"
       inkscape:export-xdpi="46.166767"
       inkscape:export-ydpi="46.166767" />
    <path
       style="fill:#aa00d4;fill-opacity:1;fill-rule:nonzero;stroke:none"
       d="M 140 253.78125 L 140 628.0625 L 286.375 628.0625 L 186.78125 481.9375 L 187.6875 480.625 L 330.96875 480.625 L 348.1875 505.875 L 414.9375 505.875 L 471.46875 423 L 514.28125 485.8125 L 514.28125 253.78125 L 140 253.78125 z "
       id="rect2991"
       inkscape:export-filename="C:\Users\Szymon\Desktop\icons\xxxhdpi.png"
       inkscape:export-xdpi="46.166767"
       inkscape:export-ydpi="46.166767" />
    <g
       id="g3223"
       transform="translate(-1.4691815,-2.2857143)"
       inkscape:export-filename="C:\Users\Szymon\Desktop\icons\xxxhdpi.png"
       inkscape:export-xdpi="46.166767"
       inkscape:export-ydpi="46.166767">
      <path
         transform="translate(917.21851,323.55839)"
         sodipodi:type="arc"
         style="fill:#ffffff;fill-opacity:1;fill-rule:nonzero;stroke:none"
         id="path3022"
         sodipodi:cx="-588.57141"
         sodipodi:cy="152.36218"
         sodipodi:rx="142.85715"
         sodipodi:ry="42.857143"
         d="m -445.71426,152.36218 c 0,23.66935 -63.95933,42.85715 -142.85715,42.85715 -78.89782,0 -142.85715,-19.1878 -142.85715,-42.85715 0,-23.66934 63.95933,-42.85714 142.85715,-42.85714 78.89782,0 142.85715,19.1878 142.85715,42.85714 z" />
      <path
         transform="translate(917.21851,315.55839)"
         sodipodi:type="arc"
         style="fill:#aa00d4;fill-opacity:1;fill-rule:nonzero;stroke:none"
         id="path3041"
         sodipodi:cx="-588.57141"
         sodipodi:cy="152.36218"
         sodipodi:rx="142.85715"
         sodipodi:ry="42.857143"
         d="m -445.71426,152.36218 c 0,23.66935 -63.95933,42.85715 -142.85715,42.85715 -78.89782,0 -142.85715,-19.1878 -142.85715,-42.85715 0,-23.66934 63.95933,-42.85714 142.85715,-42.85714 78.89782,0 142.85715,19.1878 142.85715,42.85714 z" />
      <path
         d="m -445.71426,152.36218 c 0,23.66935 -63.95933,42.85715 -142.85715,42.85715 -78.89782,0 -142.85715,-19.1878 -142.85715,-42.85715 0,-23.66934 63.95933,-42.85714 142.85715,-42.85714 78.89782,0 142.85715,19.1878 142.85715,42.85714 z"
         sodipodi:ry="42.857143"
         sodipodi:rx="142.85715"
         sodipodi:cy="152.36218"
         sodipodi:cx="-588.57141"
         id="path3089"
         style="fill:#ffffff;fill-opacity:1;fill-rule:nonzero;stroke:none"
         sodipodi:type="arc"
         transform="translate(917.21851,307.55839)" />
      <path
         transform="translate(917.21851,299.55839)"
         sodipodi:type="arc"
         style="fill:#aa00d4;fill-opacity:1;fill-rule:nonzero;stroke:none"
         id="path3119"
         sodipodi:cx="-588.57141"
         sodipodi:cy="152.36218"
         sodipodi:rx="142.85715"
         sodipodi:ry="42.857143"
         d="m -445.71426,152.36218 c 0,23.66935 -63.95933,42.85715 -142.85715,42.85715 -78.89782,0 -142.85715,-19.1878 -142.85715,-42.85715 0,-23.66934 63.95933,-42.85714 142.85715,-42.85714 78.89782,0 142.85715,19.1878 142.85715,42.85714 z" />
      <path
         d="m -445.71426,152.36218 c 0,23.66935 -63.95933,42.85715 -142.85715,42.85715 -78.89782,0 -142.85715,-19.1878 -142.85715,-42.85715 0,-23.66934 63.95933,-42.85714 142.85715,-42.85714 78.89782,0 142.85715,19.1878 142.85715,42.85714 z"
         sodipodi:ry="42.857143"
         sodipodi:rx="142.85715"
         sodipodi:cy="152.36218"
         sodipodi:cx="-588.57141"
         id="path3121"
         style="fill:#ffffff;fill-opacity:1;fill-rule:nonzero;stroke:none"
         sodipodi:type="arc"
         transform="translate(917.21851,291.55839)" />
      <path
         d="m -445.71426,152.36218 c 0,23.66935 -63.95933,42.85715 -142.85715,42.85715 -78.89782,0 -142.85715,-19.1878 -142.85715,-42.85715 0,-23.66934 63.95933,-42.85714 142.85715,-42.85714 78.89782,0 142.85715,19.1878 142.85715,42.85714 z"
         sodipodi:ry="42.857143"
         sodipodi:rx="142.85715"
         sodipodi:cy="152.36218"
         sodipodi:cx="-588.57141"
         id="path3123"
         style="fill:#aa00d4;fill-opacity:1;fill-rule:nonzero;stroke:none"
         sodipodi:type="arc"
         transform="translate(917.21851,283.55839)" />
      <path
         transform="translate(917.21851,275.55839)"
         sodipodi:type="arc"
         style="fill:#ffffff;fill-opacity:1;fill-rule:nonzero;stroke:none"
         id="path3163"
         sodipodi:cx="-588.57141"
         sodipodi:cy="152.36218"
         sodipodi:rx="142.85715"
         sodipodi:ry="42.857143"
         d="m -445.71426,152.36218 c 0,23.66935 -63.95933,42.85715 -142.85715,42.85715 -78.89782,0 -142.85715,-19.1878 -142.85715,-42.85715 0,-23.66934 63.95933,-42.85714 142.85715,-42.85714 78.89782,0 142.85715,19.1878 142.85715,42.85714 z" />
      <flowRoot
         transform="matrix(4.0246766,0,0,1.5921602,1784.4761,159.00445)"
         style="font-size:40px;font-style:normal;font-variant:normal;font-weight:bold;font-stretch:normal;line-height:125%;letter-spacing:0px;word-spacing:0px;fill:#aa00d4;fill-opacity:1;stroke:none;font-family:Euphemia;-inkscape-font-specification:Euphemia Bold"
         id="flowRoot3165"
         xml:space="preserve"><flowRegion
           id="flowRegion3167"><rect
             style="font-style:normal;font-variant:normal;font-weight:bold;font-stretch:normal;fill:#aa00d4;font-family:Euphemia;-inkscape-font-specification:Euphemia Bold"
             y="146.25536"
             x="-373.75644"
             height="108.08632"
             width="152.53304"
             id="rect3169" /></flowRegion><flowPara
           style="font-style:normal;font-variant:normal;font-weight:bold;font-stretch:normal;fill:#aa00d4;font-family:Euphemia;-inkscape-font-specification:Euphemia Bold"
           id="flowPara3171">$</flowPara></flowRoot>    </g>
  </g>
</svg>
